<svg width="17" height="17" viewBox="0 0 17 17" fill="none" xmlns="http://www.w3.org/2000/svg">
<path d="M8.43534 16.1316C6.29846 16.1316 4.2895 15.2994 2.7785 13.7884C1.2675 12.2774 0.435303 10.2685 0.435303 8.13159C0.435303 5.99471 1.26747 3.98575 2.77847 2.47475C4.28946 0.963755 6.29842 0.131592 8.4353 0.131592C10.5722 0.131592 12.5811 0.963755 14.0921 2.47475C15.6031 3.98575 16.4353 5.99471 16.4353 8.13159C16.4353 10.2685 15.6031 12.2774 14.0921 13.7884C12.5811 15.2994 10.5722 16.1316 8.43534 16.1316Z" fill="white"/>
<path d="M8.43532 15.2556C12.3698 15.2556 15.5594 12.0661 15.5594 8.13157C15.5594 4.19707 12.3698 1.00752 8.43532 1.00752C4.50082 1.00752 1.31128 4.19707 1.31128 8.13157C1.31128 12.0661 4.50082 15.2556 8.43532 15.2556Z" fill="#F75D25"/>
<path d="M7.17028 10.9968C6.98665 10.9968 6.80307 10.9293 6.65949 10.7943L4.68914 8.93926C4.00867 8.29936 4.9992 7.18152 5.71071 7.85053L7.17028 9.22526L11.1512 5.46421C11.8317 4.82442 12.8842 5.88392 12.1728 6.55293L7.68106 10.7943C7.53748 10.9293 7.3539 10.9968 7.17028 10.9968Z" fill="white"/>
</svg>
